<svg width="24" height="24" viewBox="0 0 24 24" fill="none" xmlns="http://www.w3.org/2000/svg">
<path d="M14.3566 20.1231C14.2761 20.0914 14.1864 20.093 14.1072 20.1275C14.0279 20.162 13.9656 20.2266 13.9339 20.307L13.0171 22.6373C12.9862 22.7176 12.9882 22.8068 13.0229 22.8855C13.0575 22.9643 13.1218 23.0261 13.2019 23.0576C13.2819 23.0891 13.3712 23.0877 13.4502 23.0537C13.5292 23.0196 13.5915 22.9557 13.6236 22.8759L14.5405 20.5457C14.5561 20.5058 14.5638 20.4633 14.5631 20.4205C14.5623 20.3778 14.5531 20.3355 14.536 20.2963C14.519 20.2571 14.4943 20.2216 14.4635 20.1918C14.4327 20.1621 14.3964 20.1388 14.3566 20.1231Z" fill="#BCBAB7"/>
<path d="M22.8982 20.6311L16.7846 14.8422L19.1741 8.76905L19.6366 9.08H19.6365C19.7095 9.12919 19.7924 9.16182 19.8794 9.1756C19.9664 9.18938 20.0553 9.18398 20.1399 9.15977C20.2246 9.13573 20.3031 9.09345 20.3697 9.0359C20.4363 8.97835 20.4896 8.90692 20.5257 8.82663L20.9113 7.97135L21.6806 6.82717C22.4295 5.71357 22.1327 4.19839 21.0191 3.44958L20.3977 3.03178H21.5017C21.9965 3.03178 22.3991 2.62915 22.3991 2.13432V1.56927H22.6072C22.7872 1.56927 22.9331 1.42335 22.9331 1.24337C22.9331 1.06339 22.7872 0.91748 22.6072 0.91748H16.7825C16.6025 0.91748 16.4566 1.06339 16.4566 1.24337C16.4566 1.42335 16.6025 1.56927 16.7825 1.56927H16.9956V2.13428C16.9956 2.40277 17.1145 2.64362 17.302 2.80809C17.0504 2.981 16.8337 3.2 16.6635 3.45353L15.8941 4.59772L15.2475 5.27753C15.1245 5.40693 15.0651 5.58295 15.0845 5.76046C15.104 5.93796 15.2001 6.09691 15.3483 6.19654L15.9317 6.58883L14.6757 7.77812C14.6144 7.83789 14.579 7.91939 14.5773 8.00501C14.5756 8.09063 14.6076 8.17349 14.6665 8.23567C14.7254 8.29786 14.8064 8.33437 14.8919 8.33731C14.9775 8.34025 15.0608 8.30939 15.1239 8.2514L16.486 6.96157L18.6202 8.39662L16.2742 14.359L12.474 10.7606L14.1149 9.2067C14.1463 9.17734 14.1715 9.14208 14.1892 9.10294C14.2068 9.0638 14.2166 9.02155 14.2179 8.97863C14.2192 8.93571 14.212 8.89295 14.1967 8.85283C14.1814 8.8127 14.1583 8.77599 14.1288 8.7448C14.0993 8.71362 14.0639 8.68858 14.0246 8.67112C13.9854 8.65367 13.9431 8.64413 13.9002 8.64308C13.8572 8.64202 13.8145 8.64946 13.7745 8.66496C13.7344 8.68046 13.6978 8.70373 13.6668 8.73342L12 10.3117L8.06834 6.58888L8.65173 6.19659C8.7999 6.09695 8.89606 5.938 8.91553 5.7605C8.93499 5.583 8.87559 5.40693 8.75249 5.27753L8.10592 4.59776L7.33651 3.45357C7.16644 3.19988 6.95008 2.98051 6.69876 2.80696C6.88582 2.64262 7.00445 2.40238 7.00445 2.13432V1.56927H7.21758C7.30401 1.56927 7.38691 1.53493 7.44802 1.47381C7.50914 1.4127 7.54348 1.3298 7.54348 1.24337C7.54348 1.15694 7.50914 1.07405 7.44802 1.01293C7.38691 0.951815 7.30401 0.91748 7.21758 0.91748H1.39298C1.30654 0.91748 1.22365 0.951815 1.16253 1.01293C1.10142 1.07405 1.06708 1.15694 1.06708 1.24337C1.06708 1.3298 1.10142 1.4127 1.16253 1.47381C1.22365 1.53493 1.30654 1.56927 1.39298 1.56927H1.60103V2.13428C1.60103 2.62915 2.00361 3.03174 2.49849 3.03174H3.60248L2.98111 3.44953C2.56923 3.72654 2.25576 4.11679 2.07466 4.57812C2.05902 4.61796 2.05138 4.66049 2.05218 4.70328C2.05297 4.74607 2.06219 4.78828 2.0793 4.82751C2.09642 4.86674 2.12109 4.90221 2.15191 4.9319C2.18273 4.96159 2.2191 4.98493 2.25894 5.00056C2.29877 5.0162 2.3413 5.02384 2.38409 5.02304C2.42688 5.02225 2.4691 5.01303 2.50833 4.99591C2.54755 4.9788 2.58303 4.95413 2.61272 4.92331C2.64241 4.89249 2.66574 4.85612 2.68138 4.81628C2.81308 4.47973 3.0446 4.19153 3.34485 3.99038L4.32283 3.33278C4.71782 3.0672 5.19262 2.97134 5.65964 3.06281C6.12676 3.15432 6.53025 3.4222 6.79584 3.81718L7.37449 4.67767L3.4391 7.32391L2.86049 6.46343C2.76332 6.31898 2.68782 6.16108 2.63641 5.99475C2.61054 5.9126 2.5532 5.84403 2.47692 5.80402C2.40064 5.76402 2.31163 5.75584 2.22934 5.78128C2.14705 5.80671 2.07817 5.86368 2.03776 5.93975C1.99735 6.01581 1.9887 6.10478 2.01369 6.1872C2.08388 6.41428 2.18694 6.62986 2.3196 6.82708L3.08896 7.97127L3.47456 8.8265C3.51067 8.9068 3.56391 8.97823 3.63054 9.03579C3.69717 9.09335 3.77558 9.13564 3.86028 9.15969C3.94495 9.1839 4.03388 9.18931 4.12086 9.17553C4.20783 9.16175 4.29074 9.12911 4.36377 9.07991L4.82619 8.76896L7.21567 14.842L1.10198 20.6311C1.03975 20.6906 1.00362 20.7724 1.0015 20.8585C0.999381 20.9446 1.03143 21.028 1.09065 21.0906C1.14987 21.1531 1.23144 21.1897 1.31753 21.1922C1.40363 21.1948 1.48724 21.1632 1.5501 21.1043L7.47287 15.4961L8.06795 17.0085C8.09191 17.0694 8.13367 17.1217 8.18777 17.1586C8.24187 17.1955 8.30582 17.2152 8.37128 17.2152C8.42439 17.2152 8.47669 17.2022 8.52362 17.1773C8.57056 17.1525 8.61072 17.1166 8.64061 17.0727C8.67049 17.0288 8.6892 16.9783 8.6951 16.9255C8.701 16.8727 8.69391 16.8193 8.67445 16.7699L7.98313 15.0129L12 11.2093L16.0169 15.0129L14.4431 19.0128C14.4122 19.0931 14.4143 19.1823 14.4489 19.2611C14.4836 19.3398 14.5479 19.4017 14.6279 19.4332C14.708 19.4646 14.7972 19.4632 14.8762 19.4292C14.9552 19.3951 15.0176 19.3313 15.0496 19.2514L16.5272 15.4961L22.45 21.1043C22.5104 21.1617 22.5906 21.1937 22.674 21.1935C22.7183 21.1936 22.7622 21.1846 22.8029 21.1671C22.8436 21.1496 22.8803 21.1239 22.9107 21.0917C22.9401 21.0607 22.9632 21.0241 22.9785 20.9841C22.9938 20.9442 23.001 20.9016 22.9999 20.8588C22.9987 20.816 22.9891 20.7739 22.9717 20.7348C22.9542 20.6957 22.9293 20.6605 22.8982 20.6311ZM21.7474 1.56927V2.13428C21.7473 2.19941 21.7214 2.26186 21.6753 2.30792C21.6293 2.35398 21.5668 2.37989 21.5017 2.37995H17.8931C17.828 2.37989 17.7655 2.35398 17.7195 2.30792C17.6734 2.26186 17.6475 2.19941 17.6474 2.13428V1.56927H21.7474ZM17.2044 3.81723C17.7526 3.00189 18.862 2.78454 19.6774 3.33282L20.6554 3.99043C21.4708 4.53871 21.688 5.64809 21.1397 6.46347L20.5611 7.324L16.6257 4.67776L17.2044 3.81723ZM16.2261 5.1944L20.2334 7.88901L19.9542 8.50821L15.758 5.68654L16.2261 5.1944ZM2.25281 2.13428V1.56927H6.35275V2.13428C6.35268 2.19941 6.32678 2.26186 6.28072 2.30792C6.23466 2.35398 6.17221 2.37989 6.10707 2.37995H2.49849C2.43335 2.37989 2.3709 2.35398 2.32484 2.30792C2.27878 2.26186 2.25288 2.19941 2.25281 2.13428ZM4.04596 8.50821L3.76678 7.88901L7.77408 5.1944L8.24219 5.68654L4.04596 8.50821ZM7.72589 14.3589L5.37994 8.39662L7.5141 6.96157L11.5261 10.7605L7.72589 14.3589Z" fill="#BCBAB7"/>
<path d="M10.2612 20.8027C10.2292 20.7229 10.1668 20.659 10.0878 20.625C10.0088 20.591 9.91959 20.5895 9.83954 20.621C9.7595 20.6525 9.69515 20.7144 9.66054 20.7931C9.62592 20.8719 9.62383 20.9611 9.65474 21.0414L10.3765 22.8759C10.4005 22.9368 10.4422 22.9891 10.4963 23.026C10.5505 23.0628 10.6144 23.0826 10.6799 23.0826C10.733 23.0825 10.7853 23.0696 10.8322 23.0447C10.8791 23.0199 10.9193 22.984 10.9492 22.9401C10.9791 22.8962 10.9978 22.8456 11.0037 22.7929C11.0096 22.7401 11.0025 22.6867 10.983 22.6373L10.2612 20.8027ZM20.9439 13.2237C20.75 13.1023 20.5932 12.9508 20.4647 12.7606C20.3587 12.6037 20.1829 12.5154 19.9938 12.5254C19.8038 12.5351 19.6364 12.6413 19.5462 12.8095C19.4527 12.9838 19.3062 13.1205 19.0984 13.2273C18.9268 13.3155 18.8182 13.4833 18.808 13.676C18.7978 13.8688 18.8882 14.0472 19.0497 14.1532C19.2408 14.2786 19.3941 14.4364 19.5182 14.6357C19.5659 14.713 19.6326 14.7768 19.7119 14.8211C19.7912 14.8653 19.8805 14.8885 19.9714 14.8885H19.9728C20.1592 14.8885 20.33 14.7941 20.4299 14.6356C20.5565 14.4346 20.7246 14.2708 20.9437 14.1349C21.0212 14.0873 21.0851 14.0206 21.1294 13.9412C21.1737 13.8618 21.197 13.7724 21.1969 13.6815C21.1974 13.5899 21.1744 13.4997 21.1301 13.4196C21.0858 13.3395 21.0217 13.272 20.9439 13.2237ZM19.9747 14.148C19.8559 13.9852 19.7152 13.8396 19.5565 13.7153C19.7492 13.5924 19.9072 13.4427 20.0288 13.2676C20.1519 13.4229 20.2951 13.5611 20.4546 13.6786C20.268 13.8136 20.1074 13.9707 19.9747 14.148ZM10.1402 19.3865C10.221 19.3368 10.2877 19.2672 10.3339 19.1844C10.3802 19.1015 10.4044 19.0082 10.4043 18.9133C10.4048 18.7179 10.306 18.5393 10.1401 18.4354C9.92419 18.3005 9.73906 18.1216 9.59681 17.9103C9.48619 17.7466 9.30269 17.6548 9.10541 17.6649C8.90701 17.675 8.73229 17.7859 8.63808 17.9615C8.53054 18.1619 8.36273 18.3187 8.12508 18.4409C7.94589 18.5331 7.83256 18.7081 7.82192 18.9093C7.81127 19.1105 7.90561 19.2967 8.07425 19.4074C8.29112 19.5496 8.46501 19.7287 8.60584 19.9549C8.70839 20.1195 8.8852 20.2182 9.07878 20.2187H9.08025C9.27488 20.2187 9.45321 20.12 9.5574 19.9545C9.69923 19.7294 9.89524 19.5383 10.1402 19.3865ZM9.08208 19.4938C8.93395 19.2828 8.75697 19.0999 8.5537 18.9478C8.79933 18.7997 8.99583 18.6134 9.14026 18.3915C9.29196 18.591 9.47332 18.766 9.67803 18.9105C9.44169 19.0746 9.24203 19.2701 9.08208 19.4938ZM3.50889 14.9937C3.55469 15.0678 3.61868 15.129 3.6948 15.1714C3.77091 15.2139 3.85661 15.2362 3.94376 15.2362H3.9451C4.12391 15.2362 4.28764 15.1456 4.38336 14.9936C4.49417 14.8177 4.64138 14.6743 4.83344 14.5553C4.90776 14.5096 4.96912 14.4456 5.01165 14.3694C5.05419 14.2932 5.07647 14.2073 5.07638 14.1201C5.07685 14.0322 5.05478 13.9457 5.01229 13.8689C4.96979 13.792 4.90829 13.7273 4.83366 13.681C4.66385 13.5746 4.52658 13.442 4.41404 13.2754C4.36476 13.2019 4.2972 13.1424 4.21799 13.1028C4.13878 13.0632 4.05064 13.0449 3.96222 13.0497C3.7799 13.0589 3.61939 13.1608 3.53283 13.3221C3.45227 13.4723 3.32556 13.5902 3.14549 13.6828C2.98077 13.7675 2.87661 13.9285 2.86684 14.1134C2.85706 14.2984 2.94379 14.4695 3.09874 14.5712C3.26599 14.6808 3.40013 14.819 3.50889 14.9937ZM3.99686 13.8042C4.09298 13.9202 4.20166 14.0251 4.32092 14.1171C4.17857 14.2247 4.0536 14.3469 3.9471 14.4827C3.85402 14.3609 3.74724 14.2503 3.62886 14.153C3.77481 14.0543 3.89783 13.9377 3.99686 13.8042Z" fill="#BCBAB7"/>
</svg>
