<svg width="30" height="30" viewBox="0 0 30 30" fill="none" xmlns="http://www.w3.org/2000/svg">
<g opacity="0.5">
<path d="M10.7766 23H19.5003C21.0314 23 22.2769 21.7545 22.2769 20.2234V11.9231C22.2769 11.6523 22.0554 11.4308 21.7846 11.4308H18.8308V10.6923C18.8308 8.65662 17.1742 7 15.1385 7C13.1028 7 11.4462 8.65662 11.4462 10.6923V11.4308H8.49231C8.22154 11.4308 8 11.6523 8 11.9231V20.2234C8 21.7545 9.24554 23 10.7766 23ZM12.4308 10.6923C12.4308 9.19815 13.6443 7.98462 15.1385 7.98462C16.6326 7.98462 17.8462 9.19815 17.8462 10.6923V11.4308H12.4308V10.6923ZM8.98462 12.4154H11.4462V13.6462C11.4462 13.9169 11.6677 14.1385 11.9385 14.1385C12.2092 14.1385 12.4308 13.9169 12.4308 13.6462V12.4154H17.8462V13.6462C17.8462 13.9169 18.0677 14.1385 18.3385 14.1385C18.6092 14.1385 18.8308 13.9169 18.8308 13.6462V12.4154H21.2923V20.2234C21.2923 21.2105 20.4874 22.0154 19.5003 22.0154H10.7766C9.78954 22.0154 8.98462 21.2105 8.98462 20.2234V12.4154Z" fill="#817F7D"/>
<circle cx="15" cy="15" r="14.5" stroke="#817F7D"/>
</g>
</svg>
