<svg width="30" height="30" viewBox="0 0 30 30" fill="none" xmlns="http://www.w3.org/2000/svg">
<g opacity="0.5">
<circle cx="15" cy="15" r="14.5" stroke="#817F7D"/>
<path d="M20.6994 8.71646C19.9428 8.25685 19.0825 8.01392 18.2113 8.01392C17.8322 8.01392 17.4542 8.05862 17.088 8.14683C16.7308 8.23291 16.3846 8.36001 16.056 8.52565C15.6739 8.71829 15.3161 8.9642 14.9958 9.25259C14.6754 8.96423 14.3176 8.71829 13.9356 8.52568C13.607 8.36004 13.2607 8.23294 12.9036 8.14686C12.5355 8.05846 12.1585 8.01385 11.7802 8.01394C10.8709 8.01394 9.9815 8.27994 9.20823 8.78319C8.44705 9.2786 7.83724 9.97857 7.44708 10.8047C7.00147 11.7473 6.89906 12.7928 7.14268 13.912C7.31189 14.6894 7.64156 15.4984 8.18012 16.4579C8.93991 17.8116 9.98318 19.1026 11.2809 20.2951C11.4361 20.4378 11.5927 20.5843 11.7584 20.7395C12.4659 21.4018 13.2676 22.1524 14.1222 22.7212C14.3819 22.8943 14.6862 22.9864 14.9972 22.9861C15.2994 22.9861 15.5954 22.8996 15.8509 22.7366C17.3138 21.8043 18.6515 20.6339 19.8267 19.2577C21.0337 17.8443 22.3313 16.1383 22.8036 14.2017C22.9076 13.7754 22.9678 13.3536 22.9827 12.948C23.0142 12.0856 22.8456 11.2981 22.4815 10.6072C22.0717 9.82962 21.4555 9.17581 20.6994 8.71646ZM21.8054 12.904C21.7929 13.2455 21.7407 13.5847 21.6598 13.9163C21.2466 15.6109 20.0452 17.1789 18.9352 18.4786C17.8612 19.7362 16.6135 20.8421 15.223 21.7282C15.1554 21.7713 15.0772 21.7942 14.9973 21.7943C14.918 21.7943 14.8388 21.7715 14.7699 21.7257C13.814 21.0894 12.9073 20.1795 12.0731 19.4129C10.9557 18.3862 9.95145 17.2 9.20466 15.8694C8.43028 14.4899 7.78016 12.8625 8.5099 11.3188C9.11099 10.0472 10.3807 9.20558 11.7802 9.20558C12.9514 9.20558 13.9941 9.7623 14.6637 10.6284C14.7485 10.7379 14.8721 10.7927 14.9958 10.7927C15.1195 10.7927 15.2431 10.738 15.3279 10.6284C15.9975 9.76227 17.0402 9.20558 18.2113 9.20558C19.5517 9.20558 20.8114 9.97141 21.4419 11.1678C21.7244 11.704 21.8274 12.3006 21.8054 12.904Z" fill="#817F7D"/>
<path d="M14.9971 23C14.6834 23.0004 14.3765 22.9075 14.1145 22.7328C13.2589 22.1633 12.4567 21.4123 11.7489 20.7497C11.5832 20.5945 11.4266 20.448 11.2715 20.3054C9.97263 19.1119 8.92846 17.8197 8.168 16.4648C7.62873 15.504 7.29862 14.6938 7.12911 13.915C6.8848 12.7927 6.98756 11.7442 7.43449 10.7987C7.82576 9.97022 8.4373 9.26828 9.20062 8.77147C9.97612 8.26677 10.8681 8 11.7801 8C12.1603 8 12.5393 8.04484 12.9066 8.1333C13.2648 8.21964 13.612 8.34711 13.9416 8.51321C14.3202 8.70407 14.6747 8.94653 14.9956 9.23397C15.3165 8.94653 15.6711 8.70407 16.0497 8.51321C16.3793 8.3471 16.7265 8.21964 17.0847 8.1333C17.4538 8.04463 17.8318 7.99989 18.2112 8C19.0849 8 19.9477 8.24363 20.7063 8.70454C21.4645 9.16518 22.0825 9.82088 22.4935 10.6007C22.8587 11.2938 23.0279 12.0837 22.9963 12.9486C22.9814 13.3551 22.921 13.7779 22.8168 14.2051C22.3439 16.1446 21.0451 17.8522 19.837 19.2668C18.6608 20.6441 17.3221 21.8154 15.8581 22.7484C15.6003 22.9128 15.3018 23.0001 14.9971 23ZM11.78 8.02782C10.8733 8.02782 9.98652 8.29306 9.21547 8.79487C8.45643 9.28887 7.84833 9.98687 7.45927 10.8107C7.01504 11.7505 6.91296 12.7929 7.15592 13.909C7.32482 14.685 7.654 15.4928 8.19187 16.451C8.9509 17.8034 9.99326 19.0933 11.29 20.2848C11.4452 20.4275 11.6018 20.574 11.7675 20.7292C12.4746 21.3912 13.2759 22.1413 14.1296 22.7096C14.3871 22.8812 14.6887 22.9725 14.9971 22.9722C15.2968 22.9722 15.5895 22.8866 15.8434 22.7248C17.3051 21.7933 18.6417 20.6238 19.8161 19.2486C21.0221 17.8364 22.3185 16.1321 22.7901 14.1984C22.8938 13.773 22.954 13.3521 22.9687 12.9475C23.0002 12.0876 22.8321 11.3024 22.4692 10.6138C22.0606 9.83837 21.4461 9.18641 20.6921 8.72836C19.9377 8.27003 19.0798 8.02779 18.2111 8.02779C17.8339 8.02768 17.458 8.07217 17.091 8.16034C16.7349 8.24618 16.3896 8.37292 16.0619 8.53808C15.682 8.72966 15.3262 8.97354 15.0047 9.26296L14.9956 9.2712L14.9864 9.26296C14.665 8.97357 14.3093 8.72969 13.9292 8.53811C13.6016 8.37296 13.2563 8.24622 12.9002 8.16037C12.5332 8.0722 12.1572 8.02772 11.78 8.02782ZM14.9971 21.8082C14.9131 21.8082 14.8319 21.7837 14.7621 21.7373C13.9878 21.2219 13.2564 20.5371 12.549 19.875C12.3813 19.7179 12.2228 19.5696 12.0636 19.4233C10.8573 18.3148 9.89129 17.1214 9.19248 15.8764C8.4716 14.592 7.74109 12.9125 8.49731 11.3128C9.10641 10.0243 10.395 9.19166 11.7801 9.19166C12.9177 9.19166 13.9726 9.71219 14.6744 10.6198C14.7525 10.7208 14.8696 10.7788 14.9956 10.7788C15.1216 10.7788 15.2387 10.7209 15.3169 10.6198C16.0186 9.71219 17.0736 9.19166 18.2112 9.19166C19.5505 9.19166 20.8234 9.96478 21.4539 11.1613C21.72 11.6662 21.8428 12.2527 21.819 12.9045C21.8071 13.2298 21.7579 13.5713 21.673 13.9196C21.2597 15.6146 20.0622 17.18 18.9454 18.4877C17.8455 19.7757 16.5955 20.8699 15.2301 21.7399C15.1604 21.7845 15.0796 21.8082 14.9971 21.8082ZM11.7801 9.21948C10.4055 9.21948 9.1267 10.0459 8.52214 11.3248C7.7714 12.9129 8.4988 14.5841 9.21641 15.8626C9.91381 17.1051 10.878 18.2961 12.0821 19.4026C12.2414 19.549 12.3999 19.6974 12.5677 19.8545C13.2743 20.5159 14.0048 21.1999 14.7773 21.7141C14.8425 21.7575 14.919 21.7806 14.9971 21.7804C15.0743 21.7804 15.1498 21.7583 15.2155 21.7164C16.5786 20.8478 17.8265 19.7554 18.9246 18.4695C20.0393 17.1643 21.2343 15.6022 21.6463 13.9129C21.7308 13.5665 21.7797 13.2268 21.7915 12.9035C21.8151 12.2566 21.6934 11.6749 21.4296 11.1744C20.8038 9.98681 19.5405 9.21948 18.2112 9.21948C17.0821 9.21948 16.035 9.73612 15.3385 10.6369C15.2552 10.7448 15.1302 10.8067 14.9956 10.8067C14.8611 10.8067 14.7361 10.7448 14.6527 10.6369C13.9562 9.73612 12.9092 9.21948 11.7801 9.21948Z" fill="#817F7D"/>
</g>
</svg>
