<svg width="22" height="22" viewBox="0 0 22 22" fill="none" xmlns="http://www.w3.org/2000/svg">
<g clip-path="url(#clip0_187_12473)">
<path d="M13.0611 0.0214844H2.5629C1.4436 0.0214844 0.530151 0.934935 0.530151 2.05852V19.9459C0.530151 21.0694 1.4436 21.9786 2.5629 21.9786H13.0611C14.1847 21.9786 15.0982 21.0651 15.0982 19.9459V2.05852C15.0982 0.934935 14.1847 0.0214844 13.0611 0.0214844ZM14.412 19.9416C14.412 20.6835 13.8073 21.2882 13.0611 21.2882H2.5629C1.82099 21.2882 1.21631 20.6835 1.21631 19.9416V2.05852C1.21631 1.31232 1.82099 0.707644 2.5629 0.707644H13.0611C13.8031 0.707644 14.412 1.31232 14.412 2.05423V19.9416Z" fill="#BCBAB7"/>
<path d="M13.0612 22H2.56292C1.43024 22 0.508728 21.0785 0.508728 19.9458V2.05848C0.508728 0.923443 1.43024 0 2.56292 0H13.0612C14.1962 0 15.1196 0.923443 15.1196 2.05848V19.9458C15.1196 21.0785 14.1962 22 13.0612 22ZM2.56292 0.042885C1.45387 0.042885 0.551613 0.947072 0.551613 2.05848V19.9458C0.551613 21.0549 1.45387 21.9571 2.56292 21.9571H13.0612C14.1726 21.9571 15.0768 21.0549 15.0768 19.9458V2.05848C15.0768 0.947072 14.1726 0.042885 13.0612 0.042885H2.56292ZM13.0612 21.3096H2.56292C1.80857 21.3096 1.19489 20.6958 1.19489 19.9415V2.05848C1.19489 1.30177 1.80857 0.68616 2.56292 0.68616H13.0612C13.8179 0.68616 14.4335 1.29984 14.4335 2.05419V19.9415C14.4335 20.6959 13.8178 21.3096 13.0612 21.3096ZM2.56292 0.729045C1.83224 0.729045 1.23777 1.32545 1.23777 2.05848V19.9415C1.23777 20.6722 1.83224 21.2667 2.56292 21.2667H13.0612C13.7942 21.2667 14.3906 20.6722 14.3906 19.9415V2.05419C14.3906 1.32352 13.7942 0.729045 13.0612 0.729045H2.56292Z" fill="#BCBAB7"/>
<path d="M7.81205 10.4553C5.39762 10.4553 3.4292 12.4195 3.4292 14.8382C3.4292 17.2569 5.39333 19.221 7.81205 19.221C10.2308 19.221 12.1949 17.2569 12.1949 14.8382C12.1949 12.4195 10.2308 10.4553 7.81205 10.4553ZM7.81205 18.5349C5.77501 18.5349 4.11536 16.8752 4.11536 14.8382C4.11536 12.8011 5.77501 11.1415 7.81205 11.1415C9.84908 11.1415 11.5087 12.8011 11.5087 14.8382C11.5087 16.8752 9.85337 18.5349 7.81205 18.5349Z" fill="#BCBAB7"/>
<path d="M7.81206 19.2425C5.38353 19.2425 3.40778 17.2668 3.40778 14.8382C3.40778 12.4097 5.38353 10.434 7.81206 10.434C10.2406 10.434 12.2164 12.4097 12.2164 14.8382C12.2164 17.2668 10.2406 19.2425 7.81206 19.2425ZM7.81206 10.4768C5.40716 10.4768 3.45066 12.4333 3.45066 14.8382C3.45066 17.2432 5.40716 19.1997 7.81206 19.1997C10.217 19.1997 12.1735 17.2432 12.1735 14.8382C12.1735 12.4333 10.2169 10.4768 7.81206 10.4768ZM7.81206 18.5564C5.7619 18.5564 4.09394 16.8884 4.09394 14.8382C4.09394 12.7881 5.7619 11.1201 7.81206 11.1201C9.86227 11.1201 11.5302 12.7881 11.5302 14.8382C11.5302 16.8884 9.86222 18.5564 7.81206 18.5564ZM7.81206 11.163C5.78553 11.163 4.13682 12.8117 4.13682 14.8382C4.13682 16.8648 5.78553 18.5135 7.81206 18.5135C9.83859 18.5135 11.4873 16.8648 11.4873 14.8382C11.4873 12.8117 9.83859 11.163 7.81206 11.163Z" fill="#BCBAB7"/>
<path d="M7.81206 11.7076C6.08809 11.7076 4.68146 13.11 4.68146 14.8382C4.68146 16.5665 6.0838 17.9689 7.81206 17.9689C9.53604 17.9689 10.9427 16.5665 10.9427 14.8382C10.9427 13.11 9.54033 11.7076 7.81206 11.7076ZM7.81206 17.2784C6.46547 17.2784 5.36762 16.1805 5.36762 14.834C5.36762 13.4874 6.46547 12.3895 7.81206 12.3895C9.15865 12.3895 10.2565 13.4874 10.2565 14.834C10.2565 16.1805 9.16294 17.2784 7.81206 17.2784Z" fill="#BCBAB7"/>
<path d="M7.81205 17.9902C6.07401 17.9902 4.66001 16.5762 4.66001 14.8382C4.66001 13.1001 6.07401 11.6861 7.81205 11.6861C9.5501 11.6861 10.9641 13.1001 10.9641 14.8382C10.9641 16.5762 9.55005 17.9902 7.81205 17.9902ZM7.81205 11.729C6.09764 11.729 4.70289 13.1238 4.70289 14.8382C4.70289 16.5526 6.09764 17.9474 7.81205 17.9474C9.52647 17.9474 10.9212 16.5526 10.9212 14.8382C10.9212 13.1238 9.52643 11.729 7.81205 11.729ZM7.81205 17.2998C6.45234 17.2998 5.34617 16.1936 5.34617 14.8339C5.34617 13.4742 6.45234 12.368 7.81205 12.368C9.17177 12.368 10.2779 13.4742 10.2779 14.8339C10.2779 16.1936 9.17172 17.2998 7.81205 17.2998ZM7.81205 12.4109C6.47602 12.4109 5.38905 13.4979 5.38905 14.8339C5.38905 16.1699 6.47602 17.2569 7.81205 17.2569C9.14809 17.2569 10.2351 16.1699 10.2351 14.8339C10.2351 13.4979 9.14809 12.4109 7.81205 12.4109ZM7.81205 9.29745C9.60894 9.29745 11.0713 7.83507 11.0713 6.03819C11.0713 4.24131 9.60894 2.77893 7.81205 2.77893C6.01517 2.77893 4.5528 4.24131 4.5528 6.03819C4.5528 7.83507 6.01946 9.29745 7.81205 9.29745ZM7.81205 3.46509C9.23155 3.46509 10.3852 4.6187 10.3852 6.03819C10.3852 7.45768 9.23155 8.61129 7.81205 8.61129C6.39256 8.61129 5.23896 7.45768 5.23896 6.03819C5.23896 4.6187 6.39685 3.46509 7.81205 3.46509Z" fill="#BCBAB7"/>
<path d="M7.81201 9.31885C6.00304 9.31885 4.53131 7.84712 4.53131 6.03815C4.53131 4.22917 6.00304 2.75745 7.81201 2.75745C9.62099 2.75745 11.0927 4.22917 11.0927 6.03815C11.0927 7.84712 9.62099 9.31885 7.81201 9.31885ZM7.81201 2.80033C6.02667 2.80033 4.5742 4.2528 4.5742 6.03815C4.5742 7.82349 6.02667 9.27596 7.81201 9.27596C9.59736 9.27596 11.0498 7.82349 11.0498 6.03815C11.0498 4.2528 9.59731 2.80033 7.81201 2.80033ZM7.81201 8.63269C6.38137 8.63269 5.21747 7.46879 5.21747 6.03815C5.21747 4.6075 6.38137 3.44361 7.81201 3.44361C9.24266 3.44361 10.4066 4.6075 10.4066 6.03815C10.4066 7.46879 9.24261 8.63269 7.81201 8.63269ZM7.81201 3.48649C6.405 3.48649 5.26036 4.63113 5.26036 6.03815C5.26036 7.44516 6.405 8.58981 7.81201 8.58981C9.21903 8.58981 10.3637 7.44516 10.3637 6.03815C10.3637 4.63113 9.21898 3.48649 7.81201 3.48649Z" fill="#BCBAB7"/>
<path d="M7.81206 8.04098C8.91849 8.04098 9.81478 7.1404 9.81478 6.03825C9.81478 4.93182 8.9142 4.03552 7.81206 4.03552C6.70562 4.03552 5.80933 4.93611 5.80933 6.03825C5.80933 7.14468 6.70991 8.04098 7.81206 8.04098ZM7.81206 4.71739C8.5411 4.71739 9.12862 5.30921 9.12862 6.03396C9.12862 6.75872 8.5411 7.35482 7.81206 7.35482C7.08301 7.35482 6.49549 6.7673 6.49549 6.03825C6.49549 5.30921 7.0873 4.71739 7.81206 4.71739Z" fill="#BCBAB7"/>
<path d="M7.81201 8.06242C6.69589 8.06242 5.78784 7.15437 5.78784 6.03824C5.78784 4.92212 6.69589 4.01407 7.81201 4.01407C8.92814 4.01407 9.83618 4.92212 9.83618 6.03824C9.83618 7.15437 8.92814 8.06242 7.81201 8.06242ZM7.81201 4.05696C6.71952 4.05696 5.83073 4.94575 5.83073 6.03824C5.83073 7.13074 6.71952 8.01953 7.81201 8.01953C8.90451 8.01953 9.7933 7.13074 9.7933 6.03824C9.7933 4.94575 8.90451 4.05696 7.81201 4.05696ZM7.81201 7.37626C7.07422 7.37626 6.474 6.77599 6.474 6.03824C6.474 5.29809 7.07422 4.69594 7.81201 4.69594C8.54981 4.69594 9.15003 5.29621 9.15003 6.03396C9.15003 6.77411 8.54976 7.37626 7.81201 7.37626ZM7.81201 4.73883C7.09789 4.73883 6.51689 5.32172 6.51689 6.03824C6.51689 6.75237 7.09785 7.33337 7.81201 7.33337C8.52618 7.33337 9.10714 6.75048 9.10714 6.03396C9.10714 5.31983 8.52613 4.73883 7.81201 4.73883ZM12.4908 1.55676C11.9633 1.55676 11.5344 1.98561 11.5344 2.5131C11.5344 3.04058 11.9633 3.46943 12.4908 3.46943C13.0183 3.46943 13.4471 3.04058 13.4471 2.5131C13.4471 1.98561 13.0183 1.55676 12.4908 1.55676ZM12.4908 2.78327C12.3407 2.78327 12.2206 2.6632 12.2206 2.5131C12.2206 2.363 12.3407 2.24292 12.4908 2.24292C12.6409 2.24292 12.7609 2.363 12.7609 2.5131C12.7609 2.6632 12.6409 2.78327 12.4908 2.78327Z" fill="#BCBAB7"/>
<path d="M12.4908 3.49083C11.9516 3.49083 11.513 3.05221 11.513 2.51306C11.513 1.97391 11.9516 1.53528 12.4908 1.53528C13.0299 1.53528 13.4686 1.97391 13.4686 2.51306C13.4686 3.05221 13.0299 3.49083 12.4908 3.49083ZM12.4908 1.57816C11.9753 1.57816 11.5558 1.99758 11.5558 2.51306C11.5558 3.02853 11.9753 3.44795 12.4908 3.44795C13.0063 3.44795 13.4257 3.02858 13.4257 2.51306C13.4257 1.99754 13.0063 1.57816 12.4908 1.57816ZM12.4908 2.80467C12.33 2.80467 12.1991 2.67387 12.1991 2.51306C12.1991 2.35224 12.33 2.22144 12.4908 2.22144C12.6516 2.22144 12.7824 2.35228 12.7824 2.51306C12.7824 2.67383 12.6516 2.80467 12.4908 2.80467ZM12.4908 2.26432C12.3536 2.26432 12.242 2.37591 12.242 2.51306C12.242 2.6502 12.3536 2.76179 12.4908 2.76179C12.6279 2.76179 12.7395 2.6502 12.7395 2.51306C12.7395 2.37591 12.6279 2.26432 12.4908 2.26432ZM3.13328 3.46939C3.66076 3.46939 4.08961 3.04054 4.08961 2.51306C4.08961 1.98557 3.66076 1.55672 3.13328 1.55672C2.60579 1.55672 2.17694 1.98557 2.17694 2.51306C2.17694 3.04054 2.60579 3.46939 3.13328 3.46939ZM3.13328 2.24288C3.28337 2.24288 3.40345 2.36296 3.40345 2.51306C3.40345 2.66315 3.28337 2.78323 3.13328 2.78323C2.98318 2.78323 2.8631 2.66315 2.8631 2.51306C2.8631 2.36296 2.98747 2.24288 3.13328 2.24288Z" fill="#BCBAB7"/>
<path d="M3.1333 3.49083C2.59415 3.49083 2.15552 3.05221 2.15552 2.51306C2.15552 1.97391 2.59415 1.53528 3.1333 1.53528C3.67245 1.53528 4.11107 1.97391 4.11107 2.51306C4.11107 3.05221 3.67245 3.49083 3.1333 3.49083ZM3.1333 1.57816C2.61777 1.57816 2.1984 1.99758 2.1984 2.51306C2.1984 3.02853 2.61782 3.44795 3.1333 3.44795C3.64877 3.44795 4.06819 3.02858 4.06819 2.51306C4.06819 1.99754 3.64877 1.57816 3.1333 1.57816ZM3.1333 2.80467C2.97248 2.80467 2.84168 2.67387 2.84168 2.51306C2.84168 2.35224 2.97252 2.22144 3.1333 2.22144C3.29407 2.22144 3.42491 2.35228 3.42491 2.51306C3.42491 2.67383 3.29407 2.80467 3.1333 2.80467ZM3.1333 2.26432C2.99615 2.26432 2.88456 2.37591 2.88456 2.51306C2.88456 2.6502 2.99615 2.76179 3.1333 2.76179C3.27044 2.76179 3.38203 2.6502 3.38203 2.51306C3.38203 2.37591 3.27044 2.26432 3.1333 2.26432ZM12.4908 18.5306C11.9633 18.5306 11.5345 18.9595 11.5345 19.4869C11.5345 20.0144 11.9633 20.4433 12.4908 20.4433C13.0183 20.4433 13.4471 20.0144 13.4471 19.4869C13.4471 18.9595 13.0183 18.5306 12.4908 18.5306ZM12.4908 19.7571C12.3407 19.7571 12.2206 19.637 12.2206 19.4869C12.2206 19.3368 12.3407 19.2168 12.4908 19.2168C12.6409 19.2168 12.761 19.3368 12.761 19.4869C12.761 19.637 12.6409 19.7571 12.4908 19.7571Z" fill="#BCBAB7"/>
<path d="M12.4908 20.4647C11.9516 20.4647 11.513 20.0261 11.513 19.4869C11.513 18.9478 11.9516 18.5092 12.4908 18.5092C13.0299 18.5092 13.4686 18.9478 13.4686 19.487C13.4686 20.0261 13.0299 20.4647 12.4908 20.4647ZM12.4908 18.552C11.9753 18.552 11.5558 18.9715 11.5558 19.487C11.5558 20.0025 11.9753 20.4219 12.4908 20.4219C13.0063 20.4219 13.4257 20.0025 13.4257 19.487C13.4257 18.9715 13.0063 18.552 12.4908 18.552ZM12.4908 19.7786C12.4135 19.7785 12.3393 19.7477 12.2847 19.693C12.23 19.6384 12.1992 19.5643 12.1991 19.4869C12.1992 19.4096 12.23 19.3355 12.2846 19.2808C12.3393 19.2261 12.4135 19.1954 12.4908 19.1953C12.6516 19.1953 12.7824 19.3261 12.7824 19.4869C12.7824 19.6477 12.6516 19.7786 12.4908 19.7786ZM12.4908 19.2382C12.3536 19.2382 12.242 19.3498 12.242 19.487C12.242 19.6241 12.3536 19.7357 12.4908 19.7357C12.6279 19.7357 12.7395 19.6241 12.7395 19.487C12.7395 19.3498 12.6279 19.2382 12.4908 19.2382ZM3.13328 18.5306C2.60579 18.5306 2.17694 18.9594 2.17694 19.4869C2.17694 20.0144 2.60579 20.4433 3.13328 20.4433C3.66076 20.4433 4.08961 20.0144 4.08961 19.4869C4.08961 18.9594 3.66076 18.5306 3.13328 18.5306ZM3.13328 19.7571C2.98318 19.7571 2.8631 19.637 2.8631 19.4869C2.8631 19.3368 2.98318 19.2168 3.13328 19.2168C3.28337 19.2168 3.40345 19.3368 3.40345 19.4869C3.40345 19.637 3.28337 19.7571 3.13328 19.7571Z" fill="#BCBAB7"/>
<path d="M3.1333 20.4647C2.59415 20.4647 2.15552 20.0261 2.15552 19.487C2.15552 18.9478 2.59415 18.5092 3.1333 18.5092C3.67245 18.5092 4.11107 18.9479 4.11107 19.487C4.11107 20.0262 3.67245 20.4647 3.1333 20.4647ZM3.1333 18.5521C2.61777 18.5521 2.1984 18.9715 2.1984 19.487C2.1984 20.0025 2.61782 20.4219 3.1333 20.4219C3.64877 20.4219 4.06819 20.0025 4.06819 19.487C4.06819 18.9715 3.64877 18.5521 3.1333 18.5521ZM3.1333 19.7786C2.97248 19.7786 2.84168 19.6477 2.84168 19.487C2.84168 19.3261 2.97252 19.1953 3.1333 19.1953C3.29407 19.1953 3.42491 19.3261 3.42491 19.487C3.42491 19.6477 3.29407 19.7786 3.1333 19.7786ZM3.1333 19.2382C2.99615 19.2382 2.88456 19.3499 2.88456 19.487C2.88456 19.6242 2.99615 19.7357 3.1333 19.7357C3.27044 19.7357 3.38203 19.6242 3.38203 19.487C3.38203 19.3499 3.27044 19.2382 3.1333 19.2382ZM17.7142 9.44759C18.529 9.44759 19.1894 8.78716 19.1894 7.97235V3.5895C19.2838 3.67098 19.4081 3.80821 19.5111 3.91543C19.8799 4.31854 20.3859 4.86747 21.0764 4.96611C21.2651 4.99184 21.4366 4.86318 21.4666 4.67449C21.4924 4.4858 21.3637 4.31426 21.175 4.28424C20.729 4.21991 20.3345 3.79106 20.0171 3.44798C19.6612 3.06201 19.2966 2.66747 18.8635 2.91192C18.6405 3.03628 18.5076 3.26357 18.5076 3.52088V6.72868C18.2803 6.58287 18.0101 6.50139 17.7185 6.50139C16.9037 6.50139 16.2432 7.16182 16.2432 7.97663C16.2432 8.79145 16.9037 9.44759 17.7142 9.44759ZM17.7142 7.18326C18.1473 7.18326 18.5033 7.53492 18.5033 7.97235C18.5033 8.40977 18.1516 8.76143 17.7142 8.76143C17.2768 8.76143 16.9251 8.40977 16.9251 7.97235C16.9251 7.53492 17.2811 7.18326 17.7142 7.18326Z" fill="#BCBAB7"/>
<path d="M17.7142 9.46907C16.8913 9.46907 16.2218 8.79959 16.2218 7.97667C16.2218 7.15139 16.8932 6.47998 17.7184 6.47998C17.9936 6.47998 18.2582 6.5525 18.4861 6.69012V3.52092C18.4861 3.25602 18.6232 3.02135 18.8531 2.89321C19.3013 2.6401 19.6732 3.04348 20.0329 3.43347L20.038 3.43896C20.3516 3.7781 20.742 4.20013 21.1781 4.263C21.3792 4.29503 21.5151 4.47704 21.4879 4.6774C21.4558 4.87874 21.2735 5.0146 21.0735 4.98737C20.3709 4.88702 19.8648 4.3338 19.4952 3.92991C19.4703 3.90388 19.4455 3.87775 19.4208 3.85152C19.349 3.77553 19.2751 3.69735 19.2108 3.63765V7.97238C19.2108 8.79766 18.5394 9.46907 17.7142 9.46907ZM17.7185 6.52287C16.9169 6.52287 16.2647 7.17506 16.2647 7.97667C16.2647 8.77592 16.915 9.42618 17.7142 9.42618C18.5158 9.42618 19.168 8.77399 19.168 7.97238V3.5427L19.2035 3.57332C19.2767 3.63653 19.3658 3.73088 19.452 3.8221C19.4776 3.84916 19.5026 3.8757 19.5265 3.90062C19.892 4.30014 20.3922 4.84675 21.0794 4.94491C21.2564 4.96897 21.4172 4.84881 21.4455 4.67118C21.4696 4.49458 21.3493 4.33372 21.1717 4.30545C20.7208 4.24044 20.3247 3.81223 20.0065 3.46813L20.0014 3.46259C19.653 3.08491 19.2928 2.69422 18.8741 2.93065C18.658 3.05115 18.529 3.2718 18.529 3.52096V6.768L18.496 6.74681C18.2677 6.60027 17.9988 6.52287 17.7185 6.52287ZM17.7142 8.78291C17.2673 8.78291 16.9037 8.41928 16.9037 7.97238C16.9037 7.52547 17.2673 7.16185 17.7142 7.16185C18.1611 7.16185 18.5247 7.52547 18.5247 7.97238C18.5247 8.41928 18.1611 8.78291 17.7142 8.78291ZM17.7142 7.20474C17.2909 7.20474 16.9466 7.5491 16.9466 7.97238C16.9466 8.39565 17.2909 8.74002 17.7142 8.74002C18.1375 8.74002 18.4818 8.39565 18.4818 7.97238C18.4818 7.5491 18.1375 7.20474 17.7142 7.20474ZM21.1707 13.8991C20.7247 13.8348 20.3302 13.4059 20.0128 13.0628C19.6569 12.6769 19.2924 12.2823 18.8592 12.5268C18.6362 12.6511 18.5033 12.8784 18.5033 13.1357V16.3435C18.276 16.1977 18.0058 16.1162 17.7142 16.1162C16.8994 16.1162 16.239 16.7767 16.239 17.5915C16.239 18.4063 16.8994 19.0667 17.7142 19.0667C18.529 19.0667 19.1894 18.4063 19.1894 17.5915V13.2043C19.2838 13.2858 19.4082 13.4231 19.5111 13.5303C19.8799 13.9334 20.3859 14.4823 21.0764 14.581C21.2651 14.6067 21.4366 14.478 21.4666 14.2893C21.4924 14.1006 21.3594 13.9248 21.1707 13.8991ZM17.7142 18.3763C17.2811 18.3763 16.9251 18.0246 16.9251 17.5872C16.9251 17.1498 17.2768 16.7981 17.7142 16.7981C18.1516 16.7981 18.5033 17.1498 18.5033 17.5872C18.5033 18.0246 18.1473 18.3763 17.7142 18.3763Z" fill="#BCBAB7"/>
<path d="M17.7142 19.0881C16.8889 19.0881 16.2175 18.4167 16.2175 17.5915C16.2175 16.7662 16.8889 16.0948 17.7142 16.0948C17.9893 16.0948 18.2538 16.1673 18.4818 16.3049V13.1357C18.4818 12.8708 18.619 12.6362 18.8488 12.508C19.297 12.2551 19.669 12.6582 20.0286 13.0482L20.0338 13.0539C20.3474 13.3929 20.7378 13.8149 21.1737 13.8778C21.3744 13.9053 21.5153 14.0912 21.4879 14.2922C21.4559 14.4935 21.2742 14.6295 21.0735 14.6022C20.3709 14.5018 19.8648 13.9487 19.4952 13.5448C19.4703 13.5187 19.4455 13.4926 19.4207 13.4663C19.3489 13.3903 19.2751 13.3121 19.2109 13.2525V17.5914C19.2109 18.4167 18.5395 19.0881 17.7142 19.0881ZM17.7142 16.1376C16.9126 16.1376 16.2604 16.7898 16.2604 17.5914C16.2604 18.393 16.9126 19.0452 17.7142 19.0452C18.5158 19.0452 19.168 18.393 19.168 17.5914V13.1575L19.2034 13.1881C19.2766 13.2513 19.3657 13.3456 19.4519 13.4368C19.4775 13.4639 19.5026 13.4905 19.5265 13.5154C19.892 13.9149 20.3922 14.4616 21.0794 14.5597C21.2561 14.5835 21.4172 14.4636 21.4454 14.286C21.4696 14.1087 21.3451 13.9445 21.1678 13.9203H21.1676C20.7166 13.8552 20.3205 13.4271 20.0023 13.0831L19.997 13.0774C19.6487 12.6996 19.2884 12.3092 18.8698 12.5455C18.6536 12.666 18.5247 12.8866 18.5247 13.1358V16.3828L18.4916 16.3616C18.2634 16.215 17.9945 16.1376 17.7142 16.1376ZM17.7142 18.3977C17.2673 18.3977 16.9037 18.034 16.9037 17.5871C16.9037 17.1402 17.2673 16.7767 17.7142 16.7767C18.1611 16.7767 18.5247 17.1403 18.5247 17.5871C18.5247 18.034 18.1611 18.3977 17.7142 18.3977ZM17.7142 16.8195C17.2909 16.8195 16.9466 17.1638 16.9466 17.5871C16.9466 18.0104 17.2909 18.3547 17.7142 18.3547C18.1375 18.3547 18.4818 18.0104 18.4818 17.5871C18.4818 17.1638 18.1375 16.8195 17.7142 16.8195Z" fill="#BCBAB7"/>
</g>
<defs>
<clipPath id="clip0_187_12473">
<rect width="22" height="22" fill="white"/>
</clipPath>
</defs>
</svg>
